<svg version="1.1" id="Layer_1" xmlns="http://www.w3.org/2000/svg" xmlns:xlink="http://www.w3.org/1999/xlink" x="0px" y="0px"
	 width="100%" viewBox="0 0 496 496" enable-background="new 0 0 496 496" xml:space="preserve">
<path fill="#000000" opacity="1.000000" stroke="none" 
	d="
M318.158997,251.143402 
	C316.688293,252.761185 315.600739,254.285965 314.208588,255.444885 
	C307.512878,261.018951 308.717407,267.938751 311.176117,274.757996 
	C312.947601,279.671387 312.443787,284.560303 312.138275,289.455505 
	C312.002563,291.629211 310.049896,293.200653 307.949799,294.077301 
	C305.430634,295.128784 303.582336,297.034790 301.494873,298.680115 
	C299.014954,300.634766 298.409973,302.744812 299.378265,305.652924 
	C300.848083,310.067566 300.554443,313.910889 295.485321,315.925201 
	C294.367828,316.369232 293.333160,317.171112 293.349518,318.463806 
	C293.423615,324.318817 289.357330,328.118591 286.480591,332.490173 
	C283.438934,337.112366 279.296051,340.271271 273.791534,341.485199 
	C269.097931,342.520355 264.288177,342.699615 259.558228,343.682373 
	C254.633789,344.705597 251.004196,341.203644 250.700562,336.132660 
	C250.442642,331.825897 248.529709,328.059570 246.389801,324.597229 
	C244.489655,321.522919 243.172104,318.405457 242.696396,314.932404 
	C241.941223,309.419373 240.529968,303.992218 237.388962,299.513489 
	C233.499161,293.967102 234.081940,288.184570 237.226105,283.591431 
	C240.812973,278.351532 238.919769,273.666473 237.926987,268.938446 
	C237.172897,265.347229 235.664734,261.572144 232.588684,258.960785 
	C228.286087,255.308151 227.053543,250.941742 229.149872,245.612839 
	C230.521683,242.125595 229.418411,240.243454 225.438004,240.096771 
	C222.605072,239.992416 220.046097,239.357620 218.154617,236.593582 
	C216.416214,234.053253 213.467728,234.936066 211.356766,236.214325 
	C204.882263,240.134857 197.467468,238.944168 190.599838,239.706345 
	C182.804382,240.571487 177.249664,234.302216 172.572937,228.788162 
	C170.498657,226.342529 168.810532,223.367004 166.361115,221.174744 
	C162.408829,217.637329 161.495010,213.638458 163.397507,208.723526 
	C164.610031,205.591049 165.566605,202.094147 163.782440,199.033936 
	C161.535355,195.179703 162.750549,192.171417 164.878387,188.964890 
	C167.260071,185.375839 168.604309,181.193161 171.374725,177.784485 
	C172.462692,176.445862 173.503494,175.364334 175.101196,174.671219 
	C178.567352,173.167526 180.582001,170.666428 180.798294,166.655945 
	C180.977661,163.330307 183.426254,161.322479 185.549896,158.880951 
	C189.792557,154.003204 193.893127,150.506683 200.681366,153.565430 
	C201.024048,153.719833 201.695175,153.434799 202.079697,153.164337 
	C210.556229,147.202499 220.616058,148.797348 230.022263,147.431137 
	C235.457703,146.641647 238.737137,149.913818 237.974472,155.597443 
	C237.438232,159.593613 238.989288,160.509644 242.228745,161.196640 
	C244.798477,161.741592 247.198883,162.846436 249.262680,164.739105 
	C251.542816,166.830200 253.877594,168.108871 255.878906,163.958725 
	C257.674500,160.235153 261.258362,160.506058 264.615234,161.411148 
	C266.848785,162.013367 269.159943,162.720871 271.108276,163.916061 
	C277.613739,167.906754 284.665985,163.651855 291.385712,165.553864 
	C295.804932,166.804703 299.499420,169.428879 297.731140,173.105789 
	C294.471741,179.883194 298.045715,185.143387 300.869781,189.746231 
	C304.110931,195.028885 305.111847,201.065491 308.502350,206.294434 
	C312.023712,211.725250 317.780701,214.694244 321.219574,220.091721 
	C322.317322,221.814651 325.853699,220.691925 328.278137,219.785797 
	C331.661591,218.521240 335.676239,216.224442 338.477325,219.637299 
	C341.193359,222.946609 338.153503,226.620300 336.601929,229.720963 
	C333.106171,236.706909 329.435211,243.642639 321.794678,247.270645 
	C320.405396,247.930359 319.519836,249.650940 318.158997,251.143402 
z"/>
<path fill="#000000" opacity="1.000000" stroke="none" 
	d="
M341.024719,365.117188 
	C332.052917,370.356354 322.932281,374.451508 313.448517,377.601654 
	C309.701263,378.846375 308.890900,380.443146 309.883209,384.109863 
	C311.722198,390.905334 311.217560,391.525757 304.203613,393.009949 
	C288.345612,396.365570 272.329468,398.200378 256.116394,397.019531 
	C250.339600,396.598816 244.600281,395.457306 238.890717,394.393372 
	C235.228622,393.711060 233.467117,394.738037 232.639313,398.571167 
	C231.076019,405.809937 230.798370,405.763519 223.592453,403.760132 
	C200.461914,397.329346 179.630417,386.476929 161.340851,370.944794 
	C158.113586,368.204132 156.214233,368.476746 153.487305,371.279449 
	C148.421341,376.486206 148.380585,376.298401 143.116928,371.063446 
	C124.702293,352.749115 111.703056,331.132874 103.516655,306.548584 
	C102.938606,304.812683 101.927460,303.316620 100.956406,301.755737 
	C98.899193,298.448944 96.556396,295.175049 98.560226,290.706573 
	C99.751083,288.050995 97.995728,285.167603 97.750755,282.364319 
	C96.852242,272.081879 96.012070,261.799927 95.766754,251.472641 
	C95.593956,244.198593 91.665016,239.134766 85.204651,237.755035 
	C83.758179,230.897797 85.999580,224.186707 87.501518,217.747620 
	C92.566216,196.034317 101.242302,175.719803 113.858452,157.228424 
	C127.316681,137.502777 143.604828,120.536972 163.347229,106.981445 
	C179.505371,95.886963 196.996567,87.560165 215.615585,81.498085 
	C218.965790,80.407303 221.548447,79.647362 223.076752,84.083824 
	C225.888748,92.246635 225.903366,93.482033 220.413010,95.277557 
	C209.935532,98.704041 199.907059,103.099945 190.087997,108.071632 
	C176.762466,114.818748 164.881027,123.622093 153.626465,133.324371 
	C149.004288,137.309052 148.866730,138.514206 153.172348,142.311050 
	C156.607452,145.340256 156.499039,147.390152 153.319046,150.716431 
	C137.078232,167.704315 125.382164,187.518127 117.792236,209.745911 
	C115.556587,216.293228 115.842628,216.717667 122.479942,217.887360 
	C126.007965,218.509125 127.873650,219.833099 126.695572,223.957794 
	C122.094276,240.067886 122.456940,256.589325 123.488594,273.053497 
	C123.847710,278.784424 125.834480,284.413544 127.080452,290.088562 
	C127.851875,293.602142 130.253632,292.794647 132.554077,292.111572 
	C139.949631,289.915710 139.862564,289.934204 142.534119,297.420746 
	C149.078140,315.759094 159.319321,331.758606 173.246948,345.372253 
	C177.794250,349.817078 178.675781,349.924683 182.861557,345.316711 
	C185.861755,342.013885 188.147766,342.024872 191.654022,344.818939 
	C208.816391,358.495361 228.343689,366.783142 250.143631,369.702667 
	C283.821808,374.213074 314.529358,366.440887 342.421722,347.315887 
	C347.207245,344.034607 351.567139,340.086639 355.875183,336.173126 
	C358.236053,334.028473 359.828094,334.081604 362.223053,336.155243 
	C369.918365,342.817932 370.043243,342.777252 362.240906,349.561615 
	C355.698761,355.250092 348.783997,360.456512 341.024719,365.117188 
z"/>
<path fill="#000000" opacity="1.000000" stroke="none" 
	d="
M389.184387,375.407959 
	C390.088531,376.987579 390.922241,378.612793 391.909515,380.138641 
	C395.426117,385.573883 394.884338,389.721893 390.062469,393.738586 
	C385.346344,397.667175 380.113983,397.437408 375.895660,392.920654 
	C374.208038,391.113617 372.860168,388.989319 371.259583,386.880219 
	C369.408661,387.637665 367.625885,388.367249 365.623260,389.186768 
	C366.343140,393.863495 369.007599,397.186066 371.937958,400.338470 
	C373.309631,401.814087 375.223358,403.103790 372.744293,405.174255 
	C370.560364,406.998199 368.216583,407.832550 366.391541,404.959137 
	C364.099915,401.351135 362.148102,397.527283 359.901398,393.533051 
	C356.412354,395.810455 355.107422,398.074036 357.132843,402.158508 
	C360.060150,408.061829 359.146057,412.179596 355.168274,415.121613 
	C348.839294,419.802582 343.332550,418.555939 339.525085,411.509613 
	C338.422089,409.468262 337.517609,407.319611 336.537842,405.253296 
	C330.379181,405.260193 329.680450,405.606018 327.918457,409.503876 
	C329.518066,410.926544 330.635040,409.291718 331.922668,408.852142 
	C333.335052,408.370026 334.906677,407.484558 335.854889,409.338013 
	C336.710876,411.011292 336.321747,412.895752 334.575409,413.632385 
	C330.667023,415.281006 330.781464,417.736481 332.643219,420.792084 
	C333.593414,422.351501 334.237610,424.011902 332.049438,424.933777 
	C330.221100,425.704071 328.012238,426.378723 326.696106,424.095123 
	C323.667328,418.840179 322.448273,412.949066 321.244232,407.100220 
	C320.855621,405.212433 322.343628,404.161896 324.018707,403.448120 
	C328.762268,401.426788 333.848969,400.320587 338.431824,397.841309 
	C340.763367,396.580017 341.799500,398.150513 342.142029,400.266876 
	C342.598907,403.090179 343.369812,405.805847 344.962830,408.196625 
	C346.235474,410.106628 347.987946,411.644531 350.395294,410.584198 
	C352.997498,409.437958 352.489288,407.042664 351.764252,404.951355 
	C350.832336,402.263306 349.361084,399.832397 347.553619,397.621796 
	C344.971771,394.464203 346.920044,392.533661 349.768188,392.741882 
	C352.402893,392.934479 353.116302,391.631592 354.414490,390.188171 
	C357.139374,387.158508 360.693146,385.296600 364.392700,383.707947 
	C366.714203,382.711060 369.161133,382.398132 370.696625,379.590027 
	C371.899109,377.390991 374.310455,377.633850 375.575775,380.502472 
	C376.858551,383.410614 378.523438,386.115723 380.875580,388.306976 
	C382.168518,389.511566 383.728668,390.207489 385.421875,389.238586 
	C387.144379,388.252930 387.138031,386.490753 386.869598,384.804169 
	C386.390656,381.795380 384.162354,379.966034 382.188507,377.923706 
	C380.861328,376.550476 377.834320,375.700714 379.804535,372.852020 
	C381.810059,369.952271 384.121765,371.354309 386.921814,373.032715 
	C388.064178,374.053772 388.624298,374.730865 389.184387,375.407959 
z"/>
<path fill="#000000" opacity="1.000000" stroke="none" 
	d="
M241.673264,115.805695 
	C245.299408,112.270103 257.693085,110.153320 261.614380,112.087860 
	C264.408020,113.466087 262.039185,115.589935 262.379883,117.271606 
	C270.328827,121.020889 271.906311,124.154037 269.003021,130.611847 
	C268.472198,131.792603 267.742523,133.274445 266.702606,133.765076 
	C263.108673,135.460632 259.059906,136.268677 257.990540,141.153046 
	C257.755585,142.226151 255.507248,142.871765 253.978653,142.121353 
	C252.425751,141.359009 252.901337,139.814590 253.140503,138.563751 
	C254.169876,133.180084 255.322296,127.819954 256.354584,122.436806 
	C256.641724,120.939407 257.860901,119.389854 256.228302,117.584206 
	C253.499146,119.716370 254.046982,122.955261 253.277206,125.629616 
	C252.589981,128.017197 252.343094,130.530624 251.671616,132.923920 
	C251.070145,135.067673 249.319611,135.589111 247.302460,135.219727 
	C245.001572,134.798401 245.098358,133.185532 245.452179,131.389572 
	C246.329987,126.933891 247.139908,122.464836 248.101044,117.340500 
	C244.751373,119.144875 247.347427,127.165810 240.767609,122.952980 
	C239.299652,125.106567 238.806519,127.150139 238.453293,129.253937 
	C239.723526,130.068314 240.401825,127.762100 241.849182,129.065369 
	C242.727890,130.057007 242.193466,131.258316 241.483871,132.433441 
	C239.864288,135.115570 230.871445,136.919006 226.879852,135.176392 
	C223.431259,133.670822 223.441635,130.538345 223.972992,127.483887 
	C224.921036,122.034081 228.524033,118.708878 233.191650,118.614609 
	C236.158066,118.554688 239.674683,120.175224 241.673264,115.805695 
z"/>
<path fill="#000000" opacity="1.000000" stroke="none" 
	d="
M324.108521,61.402458 
	C321.979797,65.192017 321.704224,68.807045 322.653625,73.115768 
	C326.062134,70.608681 327.499451,67.688728 327.841370,64.051056 
	C328.014404,62.210640 328.355804,60.029335 331.063019,60.896812 
	C333.214172,61.586121 335.021210,62.785206 334.013489,65.676125 
	C331.907867,71.716736 328.153595,76.418793 322.859833,79.972145 
	C320.006042,81.887695 318.274170,81.383011 317.537323,77.905258 
	C317.302582,76.797127 317.004852,75.625305 315.925507,74.938698 
	C307.407288,78.469978 306.504242,77.855743 304.674500,66.931252 
	C303.408051,70.335068 301.660095,72.931702 298.481232,74.255699 
	C295.287384,75.585938 292.233368,74.469063 289.202728,73.685181 
	C283.308594,72.160629 281.148224,69.200653 281.715637,63.741016 
	C282.381989,57.329437 287.656708,51.589195 293.314545,51.118435 
	C298.641144,50.675236 302.125031,54.036888 304.664673,62.604256 
	C305.505798,60.503979 306.114288,58.933304 306.761993,57.378979 
	C307.811493,54.860645 309.694366,54.387238 312.060760,55.345890 
	C314.625916,56.385040 313.593933,58.104435 312.962646,59.882675 
	C311.152557,64.981606 311.200104,64.998482 312.066711,69.298325 
	C315.850525,67.796638 316.846649,64.507042 317.619263,61.189102 
	C318.017670,59.477951 318.163818,57.770489 320.428955,57.822361 
	C322.509705,57.870007 324.601898,58.071056 324.108521,61.402458 
M289.458130,67.039787 
	C294.812164,69.398102 297.318512,68.686623 297.705200,64.509583 
	C297.980621,61.534611 298.258484,57.757526 294.589233,57.041836 
	C291.012329,56.344158 289.864532,59.890438 288.758118,62.692295 
	C288.242584,63.997860 288.164398,65.268150 289.458130,67.039787 
z"/>
<path fill="#000000" opacity="1.000000" stroke="none" 
	d="
M122.747208,386.648132 
	C123.023178,385.021240 123.258865,383.779022 123.544685,382.272583 
	C115.871132,386.415649 111.566673,385.365082 105.650932,378.251373 
	C102.779060,374.797974 101.953773,371.242279 104.941422,367.406830 
	C108.795769,362.458710 116.847000,359.798828 121.401520,361.989929 
	C126.566391,364.474670 127.796280,368.739288 125.573044,377.941284 
	C127.270782,376.137573 128.487915,374.803802 129.750061,373.514099 
	C131.227570,372.004395 132.802551,371.599609 134.563156,373.134186 
	C136.482254,374.807007 135.778992,376.165649 134.320389,377.743713 
	C132.184189,380.054962 130.387039,382.627136 129.450058,386.143097 
	C133.897430,386.716919 135.441437,383.471039 137.206940,380.983551 
	C139.392273,377.904510 141.380402,377.464020 143.958786,380.668640 
	C142.890366,384.869354 137.980087,387.411896 138.409271,392.807556 
	C142.392380,391.859131 144.151825,388.990601 145.612549,385.890320 
	C146.537094,383.927948 147.664474,382.822418 149.850815,384.103607 
	C151.921432,385.316986 151.776657,387.051880 150.771729,388.833527 
	C147.587570,394.478760 142.769943,398.178192 136.621048,399.984406 
	C133.104630,401.017365 132.588837,400.230530 131.243896,393.279999 
	C128.684586,391.715607 125.648880,395.376709 123.346565,392.837769 
	C121.930725,391.276428 122.763947,388.999969 122.747208,386.648132 
M113.275291,368.613770 
	C110.806602,370.505188 109.035812,372.662750 111.519989,375.678253 
	C113.022545,377.502167 115.038033,379.442322 117.410652,377.394836 
	C119.830460,375.306580 121.844307,372.306763 120.433907,369.040588 
	C119.093925,365.937469 116.266823,367.368469 113.275291,368.613770 
z"/>
<path fill="#000000" opacity="1.000000" stroke="none" 
	d="
M321.186523,286.286713 
	C324.951538,284.168213 325.953949,280.069183 328.862305,277.688629 
	C333.434113,279.675629 336.125275,284.596771 334.852020,288.764313 
	C332.628021,296.043915 330.246216,303.276123 328.092163,310.575836 
	C327.261169,313.392029 325.869904,315.358704 322.836945,315.784241 
	C319.754578,316.216675 316.975861,315.060974 315.463715,312.632721 
	C313.375214,309.278900 311.822357,305.490387 314.189056,301.448761 
	C315.210144,299.705017 315.986938,297.961578 315.374573,295.799988 
	C313.970734,290.844177 315.980957,287.782043 321.186523,286.286713 
z"/>
<path fill="#000000" opacity="1.000000" stroke="none" 
	d="
M189.015945,68.035957 
	C188.630447,65.571892 188.119431,63.119045 187.897766,60.640324 
	C187.708633,58.525425 187.320892,56.162399 189.676529,54.830902 
	C192.034897,53.497852 194.429764,53.511837 196.765335,55.023964 
	C198.010757,55.830299 199.302795,56.564636 200.557083,57.321381 
	C202.758438,56.472347 203.043228,54.161140 204.462784,52.806347 
	C208.240860,49.200531 211.539032,49.942909 213.535629,54.692577 
	C215.318863,58.934696 215.321793,63.470238 216.124130,67.866882 
	C216.725327,71.161118 214.808136,72.943321 211.638016,73.098152 
	C208.168228,73.267639 208.964264,70.483765 208.761871,68.463165 
	C208.490326,65.752121 209.429535,62.823208 207.190811,60.100010 
	C205.630936,62.005257 205.343506,64.061752 205.230225,66.193611 
	C205.157425,67.563438 204.959625,68.921394 203.318207,69.307289 
	C201.776062,69.669853 200.845917,68.695114 199.946915,67.652855 
	C198.370102,65.824760 197.497299,63.351398 194.870255,61.843388 
	C194.945526,65.691048 196.052917,68.739235 197.628098,71.666245 
	C198.477570,73.244743 199.929092,74.959518 197.211334,76.158241 
	C195.008667,77.129761 192.902374,77.177704 191.745941,74.581253 
	C190.868454,72.611099 190.193481,70.550743 189.214371,68.268204 
	C189.000351,68.005882 189.015945,68.035957 189.015945,68.035957 
z"/>
<path fill="#000000" opacity="1.000000" stroke="none" 
	d="
M70.970100,126.976265 
	C71.609268,122.208374 79.534492,113.727661 83.906593,113.133041 
	C87.536522,112.639366 89.599129,115.283264 90.269119,121.325264 
	C92.457108,122.016647 94.733978,122.547806 96.843254,123.464592 
	C98.417099,124.148666 100.737129,124.954582 99.675751,127.329788 
	C98.696381,129.521454 96.858498,131.098816 94.064346,130.306519 
	C93.431915,130.127182 92.875778,129.644012 92.240921,129.514542 
	C90.405182,129.140182 88.228653,127.386574 86.800514,129.640305 
	C85.427681,131.806763 87.762413,132.813507 89.106003,133.902695 
	C90.859032,135.323792 90.506622,136.690643 89.266441,138.167953 
	C87.657753,140.084244 85.827904,140.882141 83.699173,139.039276 
	C79.933731,135.779480 76.233124,132.444778 72.140381,128.712524 
	C71.506958,127.847824 71.238533,127.412041 70.970100,126.976265 
M82.993973,123.531662 
	C83.314079,122.489410 84.176559,121.198799 82.629379,120.610687 
	C81.116394,120.035583 80.187325,121.265869 79.642509,122.469604 
	C79.087257,123.696426 78.892593,125.191170 80.375847,125.878273 
	C81.861153,126.566307 82.222931,125.082420 82.993973,123.531662 
z"/>
<path fill="#000000" opacity="1.000000" stroke="none" 
	d="
M66.985359,150.975159 
	C72.990211,157.551010 73.040543,158.064270 68.067497,162.298752 
	C65.364403,162.215424 66.004662,158.571991 63.657539,158.104706 
	C57.719105,162.016602 57.753040,165.518936 63.759159,168.568298 
	C62.108330,174.047882 59.911312,175.074097 55.216156,172.558716 
	C49.261932,169.368805 45.323208,160.647842 47.067486,154.201065 
	C48.028126,150.650574 51.002659,149.399323 54.225594,148.940979 
	C58.387955,148.349045 62.506435,148.639328 66.639145,150.924316 
	C67.007233,150.999298 66.985359,150.975159 66.985359,150.975159 
M56.792957,156.889526 
	C57.334564,154.939346 56.102173,154.156418 54.725979,154.868820 
	C51.934395,156.313858 53.159031,158.531799 54.034439,161.317474 
	C55.140690,159.596115 55.839142,158.509308 56.792957,156.889526 
z"/>
<path fill="#000000" opacity="1.000000" stroke="none" 
	d="
M389.433105,375.571960 
	C388.624298,374.730865 388.064178,374.053772 387.239594,373.180634 
	C385.359863,367.261505 392.169006,358.551331 398.138519,358.815735 
	C403.234436,359.041473 403.201904,363.206909 403.930634,366.887421 
	C406.142273,367.463654 408.382355,367.961121 410.564819,368.642975 
	C412.346161,369.199493 414.405304,370.056946 413.355957,372.391510 
	C412.478485,374.343689 410.836212,375.957397 408.214355,375.371246 
	C408.054626,375.335510 407.904083,375.255615 407.751801,375.190247 
	C405.440521,374.197968 402.771362,371.601501 400.760071,374.704803 
	C398.885773,377.596802 403.449127,378.328766 403.948792,380.664703 
	C400.802490,385.713440 399.272766,385.988953 395.342163,382.023438 
	C393.359222,380.022919 391.562622,377.837646 389.433105,375.571960 
M397.035400,368.535522 
	C397.386902,367.487183 398.089722,366.306763 396.603577,365.630005 
	C395.533051,365.142456 394.777252,365.974396 394.158813,366.717377 
	C393.364563,367.671600 393.063721,368.756653 394.067841,369.744324 
	C395.232361,370.889771 396.071381,370.209930 397.035400,368.535522 
z"/>
<path fill="#000000" opacity="1.000000" stroke="none" 
	d="
M238.844757,432.387451 
	C237.987183,430.433899 236.987518,428.789093 235.016220,429.700134 
	C232.332413,430.940338 234.343155,433.593414 233.979187,435.433136 
	C228.916382,437.141205 227.000107,435.957123 227.298355,431.288666 
	C227.509659,427.981445 227.978058,424.681030 228.511505,421.406860 
	C229.007294,418.363739 228.926666,414.551239 233.033676,414.043945 
	C237.702835,413.467255 242.436890,413.830780 245.988541,417.580780 
	C247.764023,419.455383 247.398407,421.745056 245.772522,423.449829 
	C243.596603,425.731354 243.408295,427.672943 245.131760,430.407806 
	C246.349792,432.340607 249.111603,435.295990 245.190491,437.013550 
	C241.683701,438.549622 239.651932,436.221649 238.844757,432.387451 
z"/>
<path fill="#000000" opacity="1.000000" stroke="none" 
	d="
M188.989349,67.993271 
	C190.259262,77.463409 181.195358,85.067047 172.457642,81.839760 
	C167.286652,79.929848 164.617722,70.988976 167.391144,64.867081 
	C170.236450,58.586517 175.824585,56.640038 181.734406,59.783680 
	C185.003113,61.522434 186.797211,64.497993 188.804413,67.771324 
	C189.015945,68.035957 189.000351,68.005882 188.989349,67.993271 
M181.336594,73.970589 
	C184.081833,70.759285 181.791931,68.406487 179.776993,66.278313 
	C178.590714,65.025368 176.811935,63.682110 174.937271,65.027397 
	C172.338715,66.892174 172.796204,69.860390 173.367050,72.343498 
	C174.462418,77.108215 177.705505,75.755707 181.336594,73.970589 
z"/>
<path fill="#000000" opacity="1.000000" stroke="none" 
	d="
M240.892517,49.141838 
	C246.134384,45.717545 251.467606,46.531490 256.452972,48.317062 
	C260.073486,49.613800 260.743164,53.205513 258.352478,56.102779 
	C256.169952,58.747795 256.252991,60.603825 258.352112,62.960125 
	C258.971741,63.655697 259.199127,64.734154 259.502502,65.670753 
	C260.049011,67.358170 260.286499,69.113266 258.126831,69.778847 
	C256.282837,70.347145 254.433685,70.184616 253.430984,68.138306 
	C252.775909,66.801445 252.349915,65.347305 251.642334,64.042793 
	C251.081284,63.008438 250.198853,62.125423 248.836670,62.401375 
	C247.350693,62.702400 247.247482,63.932484 247.282318,65.127457 
	C247.350174,67.455544 247.916245,70.104599 244.231262,70.015556 
	C240.881882,69.934624 240.153076,67.384293 240.043564,64.835083 
	C239.823959,59.722935 238.998596,54.555908 240.892517,49.141838 
M249.460617,51.552605 
	C246.902145,52.364147 246.801361,54.035549 247.790085,56.408539 
	C249.765106,56.108765 251.541183,55.611217 252.176270,53.674545 
	C252.682007,52.132320 251.219498,51.864609 249.460617,51.552605 
z"/>
<path fill="#000000" opacity="1.000000" stroke="none" 
	d="
M361.965637,81.025276 
	C363.974304,79.636696 364.958099,75.881966 368.362549,77.664696 
	C372.959473,80.071838 378.587769,81.403877 380.400513,87.242653 
	C381.052155,89.341492 380.192291,91.741760 378.170532,92.256035 
	C373.687225,93.396423 373.258667,95.934319 373.953644,99.910660 
	C374.280762,101.782379 373.646210,104.610497 370.680420,104.545074 
	C368.881989,104.505394 367.060120,103.531113 366.747345,101.365791 
	C366.584839,100.240791 366.943024,99.050720 366.909851,97.894531 
	C366.859833,96.152000 367.617432,93.820152 365.323700,93.154541 
	C363.143219,92.521805 362.779022,94.784393 362.115692,96.217056 
	C361.234009,98.121353 359.938293,98.585220 358.091766,97.653252 
	C355.971191,96.582939 355.129730,94.833611 356.125000,92.705299 
	C357.881927,88.948303 359.893890,85.310562 361.898682,81.306847 
	C361.998322,80.990799 361.965637,81.025276 361.965637,81.025276 
M367.664917,87.218239 
	C369.461731,88.791504 371.521881,89.539215 373.220062,87.461632 
	C374.365051,86.060783 372.763794,85.082687 371.651123,84.471535 
	C369.309113,83.185196 367.934448,84.092384 367.664917,87.218239 
z"/>
<path fill="#000000" opacity="1.000000" stroke="none" 
	d="
M261.263855,59.453869 
	C261.439117,58.526890 261.528351,58.035480 261.609406,57.542736 
	C262.157410,54.212208 260.955933,49.605373 264.938965,48.308475 
	C269.710205,46.754925 274.920776,47.408768 279.369720,50.207806 
	C282.280029,52.038818 282.621765,54.694908 280.391052,57.443760 
	C279.561829,58.465603 278.585724,59.368294 277.571228,60.436249 
	C278.472351,62.583588 279.650482,64.612656 280.137573,66.795898 
	C280.533844,68.571808 281.173126,71.183167 278.326141,71.686554 
	C276.009796,72.096115 274.214081,71.035690 273.531281,68.405640 
	C272.943512,66.141693 272.990479,63.245956 269.766205,62.778210 
	C267.952332,63.720299 268.203156,65.320473 268.175537,66.790398 
	C268.142914,68.527107 268.137726,70.266670 265.755402,70.361862 
	C263.531799,70.450714 261.810822,69.670128 261.218170,67.332458 
	C260.592407,64.864204 260.860809,62.372364 261.263855,59.453869 
M269.084045,57.267918 
	C271.674255,57.613445 273.420319,56.650288 274.457520,53.929089 
	C270.837219,52.154854 268.579529,52.234165 269.084045,57.267918 
z"/>
<path fill="#000000" opacity="1.000000" stroke="none" 
	d="
M238.768768,64.399902 
	C237.058090,71.392311 229.600906,72.125343 223.275482,71.324753 
	C218.943787,70.776505 216.175232,66.594955 216.061279,61.318375 
	C215.947098,56.030449 220.453232,49.310932 225.034897,48.102383 
	C228.604919,47.160686 231.585800,48.523785 234.098404,50.940155 
	C237.795563,54.495708 239.210526,58.953613 238.768768,64.399902 
M231.776520,58.687439 
	C230.575577,56.309692 229.441116,53.272945 226.084839,54.506783 
	C222.754318,55.731152 222.399155,59.041309 223.020752,62.088333 
	C223.703613,65.435654 226.568207,65.140976 229.039383,64.785912 
	C232.230667,64.327377 233.119125,62.319382 231.776520,58.687439 
z"/>
<path fill="#000000" opacity="1.000000" stroke="none" 
	d="
M375.814850,107.730873 
	C373.986237,101.552055 375.613831,97.714424 381.266632,94.102142 
	C385.855591,91.169701 391.378174,91.085251 394.737030,93.896202 
	C398.974335,97.442314 400.013519,102.843460 397.501495,108.264313 
	C393.483643,116.934624 388.397247,118.222626 380.612366,112.544640 
	C378.865448,111.270508 377.176605,109.938835 375.814850,107.730873 
M387.985748,97.846153 
	C382.215454,100.340889 380.207214,103.351982 382.566376,106.279121 
	C383.978882,108.031685 385.771362,110.188904 388.363983,109.221291 
	C391.592529,108.016342 392.152222,104.730911 392.452087,101.792633 
	C392.696014,99.402214 391.443756,97.639099 387.985748,97.846153 
z"/>
<path fill="#000000" opacity="1.000000" stroke="none" 
	d="
M122.025551,103.049965 
	C119.445953,97.360931 117.365440,91.693123 120.632484,85.471382 
	C122.962875,81.033371 125.602203,79.789978 130.333755,81.426170 
	C136.061371,83.406792 139.572525,87.637177 142.046295,92.937881 
	C143.253860,95.525414 142.677750,97.367393 140.001160,98.573975 
	C137.058502,99.900505 136.151550,98.425117 135.737656,95.812073 
	C135.315720,93.148048 133.569443,93.022110 131.763977,94.335350 
	C130.025497,95.599884 127.308411,96.693459 129.181778,99.727402 
	C129.840118,100.793594 131.536667,101.131981 131.343536,103.225693 
	C128.642838,106.235107 125.739197,107.075981 122.280075,103.169769 
	C121.998543,103.011528 122.025551,103.049965 122.025551,103.049965 
M129.173599,86.995674 
	C124.671562,85.902878 125.700935,88.763519 125.184273,92.271057 
	C127.851013,90.396927 130.459061,90.404259 129.173599,86.995674 
z"/>
<path fill="#000000" opacity="1.000000" stroke="none" 
	d="
M162.036743,407.236694 
	C162.862228,405.736603 163.511093,404.573792 164.128632,403.394592 
	C168.577225,394.900024 175.538803,394.192688 181.807938,401.602966 
	C184.553192,404.847839 183.211624,408.046753 177.542892,411.337128 
	C177.848038,413.506470 178.294357,415.774933 178.451538,418.063293 
	C178.595306,420.156250 178.293961,422.436493 175.453720,422.133484 
	C173.332108,421.907166 171.057938,421.180298 171.429886,418.131195 
	C171.733932,415.638763 171.916138,413.179871 169.631577,411.589935 
	C167.905426,411.736206 167.396881,412.773071 166.979843,413.899902 
	C166.213303,415.971130 165.636765,418.281647 162.518143,416.935242 
	C159.499252,415.631897 159.304153,413.466431 160.521027,410.794830 
	C161.002853,409.737061 161.406418,408.643585 162.036743,407.236694 
M171.603058,405.701904 
	C173.371155,406.010468 175.111252,406.236481 176.431778,404.067902 
	C173.931747,402.461212 171.932709,401.363800 171.603058,405.701904 
z"/>
<path fill="#000000" opacity="1.000000" stroke="none" 
	d="
M292.735107,414.624237 
	C295.426727,419.567841 296.077026,424.718536 296.993866,429.781586 
	C297.504395,432.600861 296.762604,434.857910 293.403412,435.083984 
	C289.505554,435.346283 290.389160,432.749603 290.557526,430.371338 
	C290.714203,428.158661 291.314636,425.174896 287.497803,425.573944 
	C284.419983,425.895752 282.657928,427.677643 283.199432,431.040497 
	C283.565338,433.312714 285.422363,436.079529 281.204254,436.752747 
	C276.893127,437.440857 276.906281,434.147980 276.291229,431.435547 
	C275.320831,427.155762 275.800690,422.810547 275.734619,418.491394 
	C275.692474,415.736359 276.920227,413.904144 279.844269,413.991638 
	C283.377045,414.097412 282.337738,416.708954 282.229889,418.783539 
	C282.197601,419.405029 282.377014,420.037537 282.457611,420.650940 
	C284.380280,421.272644 285.865692,420.713226 287.225250,419.878937 
	C288.462494,417.616516 285.737183,416.195526 286.270599,413.838257 
	C288.368561,412.412354 290.490784,411.730255 292.735107,414.624237 
z"/>
<path fill="#000000" opacity="1.000000" stroke="none" 
	d="
M217.926193,435.083862 
	C216.699875,434.941162 215.868103,434.851074 215.065094,434.647522 
	C207.960037,432.846954 205.123886,430.387421 204.996475,425.951874 
	C204.830017,420.157745 210.022461,413.006714 215.447159,411.383911 
	C217.162521,410.870728 218.742142,411.018768 220.311066,411.683624 
	C224.136520,413.304749 227.553223,420.508331 227.066330,425.841614 
	C226.572632,431.249268 224.172302,433.789734 217.926193,435.083862 
M211.537109,425.267120 
	C212.727814,428.380554 215.389999,428.894531 218.005692,428.160370 
	C220.706543,427.402344 221.000595,424.814270 220.467361,422.408600 
	C220.022766,420.402802 220.114822,417.439056 217.543091,417.204407 
	C214.500992,416.926880 213.122528,419.571503 212.232895,422.194061 
	C211.968155,422.974609 211.758514,423.773834 211.537109,425.267120 
z"/>
<path fill="#000000" opacity="1.000000" stroke="none" 
	d="
M426.734497,354.782104 
	C428.339447,358.581207 425.181091,360.053619 423.460327,361.966248 
	C415.067169,371.295227 414.994873,371.242615 406.752960,361.545288 
	C405.461243,360.025482 404.232819,358.448303 403.037323,356.851135 
	C401.304688,354.536316 401.337219,352.280945 403.329498,350.079102 
	C404.891449,348.352844 406.331635,346.515717 407.907104,344.802521 
	C408.898315,343.724701 410.098999,342.196014 411.630768,343.651184 
	C413.105499,345.052155 413.219727,346.855042 411.557861,348.471497 
	C410.083099,349.905975 407.880310,350.965332 408.548218,353.709137 
	C410.498840,354.417450 410.685852,352.580231 411.441101,351.726227 
	C412.302673,350.751953 412.873016,349.134705 414.496521,349.823853 
	C416.328644,350.601562 416.374420,352.398712 416.128326,354.121643 
	C416.059998,354.599884 415.836029,355.078461 415.592834,355.505249 
	C414.527161,357.375641 412.782196,359.752869 415.616058,360.955902 
	C418.077209,362.000732 419.199799,359.224976 420.177643,357.340637 
	C421.557159,354.682159 423.204987,352.876129 426.734497,354.782104 
z"/>
<path fill="#000000" opacity="1.000000" stroke="none" 
	d="
M417.707489,121.395218 
	C415.922119,123.997467 418.633575,123.959274 419.604340,124.911789 
	C420.703491,125.990288 422.168640,127.004059 420.854736,128.607422 
	C419.597473,130.141785 417.840515,130.697083 416.039307,129.217834 
	C415.270447,128.586395 414.605713,127.824699 413.818939,127.219315 
	C412.605560,126.285675 411.372467,126.243660 410.273682,127.446892 
	C409.178589,128.646133 409.337524,129.934113 410.313446,131.039551 
	C411.067322,131.893463 411.960419,132.750183 412.970123,133.230194 
	C416.772125,135.037750 416.593567,137.373871 413.840302,140.854431 
	C409.361664,137.433228 405.675415,133.526001 402.271088,129.354385 
	C401.315308,128.183182 401.911133,126.773056 402.880524,125.724579 
	C404.346008,124.139549 405.805054,122.533508 407.407135,121.092346 
	C417.290802,112.201126 422.600464,113.323364 428.844910,125.758018 
	C426.639893,127.800003 424.667267,128.166473 422.847504,125.209175 
	C421.701233,123.346375 420.470520,121.552948 417.707489,121.395218 
z"/>
<path fill="#000000" opacity="1.000000" stroke="none" 
	d="
M121.982605,102.994324 
	C122.571030,109.082825 120.638832,112.475113 115.219826,114.822319 
	C110.789383,116.741333 105.556396,115.550491 102.493134,111.926178 
	C98.315224,106.983032 97.903061,102.824776 101.033974,97.780540 
	C102.950211,94.693275 105.583984,92.463615 108.982338,91.245033 
	C111.266533,90.425972 113.590912,90.775154 114.357094,93.296989 
	C115.121277,95.812233 113.175179,96.935135 110.967422,97.091156 
	C107.729668,97.319984 106.028702,99.113190 105.796555,102.116035 
	C105.568275,105.068748 107.038185,107.351036 109.890327,108.287407 
	C113.207375,109.376411 115.566734,107.617668 117.731194,105.268738 
	C118.747627,104.165665 118.162315,100.347702 121.781952,102.888916 
	C122.025551,103.049965 121.998543,103.011528 121.982605,102.994324 
z"/>
<path fill="#000000" opacity="1.000000" stroke="none" 
	d="
M94.550156,349.491821 
	C94.978165,349.190460 95.115433,349.097473 95.250664,349.001648 
	C104.200287,342.660217 106.857254,343.246429 112.385162,352.752380 
	C113.722496,355.052124 114.298851,357.489288 112.680450,359.760681 
	C110.941170,362.201691 108.388382,362.713043 105.582771,361.695190 
	C103.716301,361.018066 101.797440,360.420502 100.043732,359.513367 
	C97.703430,358.302917 95.748871,357.955200 94.032608,360.501038 
	C92.866608,362.230682 91.343971,363.091888 89.599159,361.096680 
	C88.053635,359.329315 86.204720,357.472565 88.425446,355.087646 
	C90.224228,353.155884 92.303574,351.485321 94.550156,349.491821 
M102.503746,355.392822 
	C104.042244,355.917633 105.564842,356.799042 107.400497,355.494934 
	C107.495720,352.707031 106.162018,351.140259 103.312576,351.651398 
	C101.754395,351.930939 99.847511,352.913605 102.503746,355.392822 
z"/>
<path fill="#000000" opacity="1.000000" stroke="none" 
	d="
M424.559143,153.734131 
	C420.070984,150.094330 416.793457,146.157074 418.240509,140.297516 
	C419.712616,134.336304 424.485535,131.259827 431.023041,131.656433 
	C436.111664,131.965149 442.225189,137.350266 442.983856,142.183731 
	C443.273773,144.030823 442.877960,145.583755 440.871094,146.081726 
	C438.936890,146.561661 437.671173,145.649536 437.141113,143.741074 
	C437.053009,143.423904 437.036102,143.086304 436.993500,142.757217 
	C436.561371,139.420822 434.397888,137.771912 431.305054,137.485825 
	C428.749115,137.249420 426.796783,138.611404 425.805176,140.992355 
	C424.489532,144.151321 425.409363,146.933029 427.880310,149.075668 
	C429.215698,150.233627 430.933075,150.951019 432.992920,152.172424 
	C430.600311,155.610138 427.994965,155.818344 424.559143,153.734131 
z"/>
<path fill="#000000" opacity="1.000000" stroke="none" 
	d="
M310.338379,431.534180 
	C298.771667,434.248291 298.772064,434.248230 297.426514,423.032623 
	C297.327332,422.205780 297.185852,421.382965 297.115631,420.553894 
	C296.393402,412.026245 299.605988,408.489838 308.233307,408.231445 
	C309.770447,408.185425 310.942902,408.578918 311.038208,410.279449 
	C311.143555,412.159180 310.250610,413.484863 308.358856,413.951538 
	C306.420227,414.429718 303.864349,413.576904 303.001434,416.431305 
	C304.143738,417.821136 305.169403,416.629059 306.139099,416.356445 
	C307.672394,415.925323 309.193024,415.424530 309.816101,417.475311 
	C310.299011,419.064667 309.799438,420.439148 308.197754,421.223907 
	C307.450958,421.589844 306.644165,421.851715 305.941559,422.285522 
	C304.483002,423.186096 303.850098,424.522980 304.664856,426.109863 
	C305.542175,427.818604 306.978638,427.747009 308.490692,426.897705 
	C309.216705,426.489868 309.975708,426.138702 310.688843,425.710388 
	C313.133575,424.242004 315.024811,425.243683 316.056458,427.415131 
	C317.370026,430.179993 314.679321,430.192078 313.141724,430.835785 
	C312.384460,431.152802 311.532288,431.243073 310.338379,431.534180 
z"/>
<path fill="#000000" opacity="1.000000" stroke="none" 
	d="
M70.599190,126.935120 
	C71.238533,127.412041 71.506958,127.847824 71.850250,128.523743 
	C72.051559,131.222183 70.652313,132.669769 68.781403,134.015884 
	C67.095230,135.229050 65.534447,136.748016 66.153564,139.198730 
	C68.587448,139.699371 68.833122,137.764511 69.787857,136.786530 
	C70.886856,135.660767 71.732613,133.602020 73.736809,135.068268 
	C75.381836,136.271744 75.938423,138.293610 74.567276,139.905945 
	C71.546280,143.458328 72.425095,145.777817 76.372894,147.570801 
	C77.732895,148.188477 78.600418,149.243927 77.648453,150.735733 
	C76.478264,152.569534 75.136528,154.545990 72.518433,153.659988 
	C70.816406,153.084000 69.281006,152.015610 67.328156,151.071503 
	C66.985359,150.975159 67.007233,150.999298 67.021339,151.008148 
	C64.706032,148.699966 62.327602,146.429672 60.061211,144.052551 
	C57.864555,141.748581 57.208942,139.360214 59.757603,136.724518 
	C63.092350,133.275879 64.869957,128.187897 70.599190,126.935120 
z"/>
<path fill="#000000" opacity="1.000000" stroke="none" 
	d="
M155.236938,388.233734 
	C159.612335,389.669098 163.615387,391.195160 166.778625,394.351074 
	C163.538315,401.724060 159.482224,392.611145 156.210297,394.963806 
	C155.914169,396.043427 156.503876,396.335815 157.144852,396.602997 
	C158.807999,397.296356 161.119644,397.826172 160.184921,400.241333 
	C159.239273,402.684753 157.184433,403.107971 154.859238,401.646973 
	C152.959793,400.453491 151.155960,400.601715 150.540375,402.963593 
	C149.937347,405.277344 151.709229,406.316010 153.643021,406.624969 
	C157.982681,407.318268 159.261108,409.454712 157.225845,413.989685 
	C152.248474,412.026398 147.811234,409.560089 143.588013,406.689636 
	C142.109268,405.684540 141.950333,404.271454 142.897263,402.761749 
	C146.252441,397.412384 149.392609,391.883575 155.236938,388.233734 
z"/>
<path fill="#000000" opacity="1.000000" stroke="none" 
	d="
M362.012634,80.971802 
	C358.800446,83.592743 354.960114,83.553696 351.126465,83.356590 
	C347.994904,83.195587 345.485199,83.908249 344.590454,87.310890 
	C344.019135,89.483467 342.646881,89.806366 340.802948,89.042091 
	C339.032471,88.308258 337.361389,87.334793 337.992340,85.023544 
	C339.487518,79.546387 341.827057,74.419266 344.863770,69.626717 
	C345.278748,68.971825 346.022430,68.364571 346.747864,68.092773 
	C351.905243,66.160439 362.747070,74.848724 362.031738,80.682983 
	C361.965637,81.025276 361.998322,80.990799 362.012634,80.971802 
M354.229828,78.384872 
	C356.582001,75.947968 354.185791,75.137650 352.655579,74.665924 
	C349.922852,73.823494 348.836548,75.455917 348.570343,77.856674 
	C350.299713,79.246765 351.966644,78.705986 354.229828,78.384872 
z"/>
<path fill="#000000" opacity="1.000000" stroke="none" 
	d="
M436.530823,159.515945 
	C439.401062,157.225479 443.007416,156.841812 445.259552,154.402618 
	C445.128265,151.115753 440.948853,151.711731 440.473267,148.558121 
	C442.833252,146.021835 445.477234,145.974548 448.047241,148.326538 
	C452.152069,152.083130 455.094147,156.706009 457.160645,161.854843 
	C457.771881,163.377716 458.425964,165.262299 456.125366,166.016418 
	C454.166016,166.658707 452.345520,166.216064 451.947479,163.835220 
	C451.208069,159.412491 448.549866,160.442657 446.142120,161.901505 
	C443.894623,163.263214 441.976532,165.163177 439.885773,166.790695 
	C438.378204,167.964264 437.255707,171.078049 434.775177,168.341888 
	C432.921173,166.296768 431.664185,163.845108 434.339783,161.352615 
	C434.946625,160.787262 435.596436,160.268021 436.530823,159.515945 
z"/>
<path fill="#000000" opacity="1.000000" stroke="none" 
	d="
M162.470764,82.649612 
	C164.241837,84.789131 164.676163,86.474686 161.994980,87.678131 
	C159.531601,88.783798 157.301865,88.615753 156.131271,85.904236 
	C154.429138,81.961502 152.969711,77.914001 151.432602,73.977310 
	C148.359543,73.713722 148.403549,77.725914 145.322571,77.611343 
	C143.437698,75.191048 143.007629,72.604591 145.837372,70.482796 
	C150.142075,67.255051 154.979767,65.032883 160.369446,64.254089 
	C162.064896,64.009109 163.340424,64.751183 163.754395,66.476463 
	C164.114120,67.975655 163.420837,69.430504 162.042877,69.664810 
	C156.533447,70.601631 158.156677,73.990372 159.385193,77.115784 
	C160.106888,78.951782 161.273514,80.612892 162.470764,82.649612 
z"/>
<path fill="#000000" opacity="1.000000" stroke="none" 
	d="
M198.814713,420.427490 
	C195.285141,420.445862 195.351410,422.759338 195.245728,424.956665 
	C195.152252,426.900482 194.927338,428.888611 192.224197,428.273987 
	C189.909607,427.747711 187.337097,426.834717 188.116837,423.761353 
	C189.498962,418.313721 191.346970,412.986481 193.944550,407.971863 
	C194.580154,406.744812 195.745224,405.823059 197.210938,406.210968 
	C201.302567,407.293915 205.623962,407.748505 209.563736,410.082581 
	C208.223755,413.222809 206.705887,414.820282 203.432114,413.041016 
	C201.598969,412.044708 199.699509,411.714813 198.494949,414.025116 
	C199.490356,417.162354 205.160156,413.871918 204.400970,418.408264 
	C203.981094,420.917206 201.565964,421.355164 198.814713,420.427490 
z"/>
<path fill="#000000" opacity="1.000000" stroke="none" 
	d="
M269.335876,434.263123 
	C269.751404,438.055756 267.199677,437.276764 265.369019,437.383179 
	C263.023010,437.519531 262.027435,435.987762 261.971069,433.957581 
	C261.852325,429.682556 261.934967,425.401917 261.934967,421.068970 
	C260.105652,420.201019 258.716980,422.771942 256.436707,421.623749 
	C255.314651,419.479218 255.602966,417.017181 258.181213,416.241119 
	C262.413849,414.967072 266.823486,413.646362 271.371979,415.185486 
	C273.109100,415.773254 275.143951,416.056213 274.718353,418.639496 
	C274.290497,421.236328 272.542511,421.128052 270.566650,420.569305 
	C270.141632,420.449097 269.620483,420.668854 268.888702,420.765747 
	C267.445496,425.195923 268.235565,429.537689 269.335876,434.263123 
z"/>
<path fill="#000000" opacity="1.000000" stroke="none" 
	d="
M399.039948,116.823456 
	C401.820801,114.155823 403.806030,111.290535 405.602112,108.278130 
	C406.530853,106.720436 407.366974,104.659943 409.711304,106.296913 
	C411.483612,107.534454 413.566376,109.095367 411.977142,111.584190 
	C409.207336,115.921715 406.299774,120.281723 401.896332,123.148285 
	C398.489136,125.366310 394.171204,124.326759 392.202911,121.168663 
	C391.315918,119.745522 390.423920,118.144859 392.026031,116.657211 
	C393.535583,115.255478 395.109924,114.652473 396.569244,116.891701 
	C397.109894,117.721207 398.006592,117.512619 399.039948,116.823456 
z"/>
<path fill="#000000" opacity="1.000000" stroke="none" 
	d="
M99.872528,113.113579 
	C101.707001,114.842072 103.291840,116.314880 104.899216,117.762665 
	C106.313583,119.036606 107.822990,120.307693 105.998871,122.306847 
	C104.443108,124.011917 102.432968,125.447380 100.347786,123.681915 
	C96.019585,120.017326 92.166008,115.829941 89.398087,110.823921 
	C88.065475,108.413803 88.801460,106.246033 91.233360,104.884605 
	C94.145012,103.254608 95.135376,105.512535 95.964119,107.537079 
	C96.810806,109.605461 98.188446,111.231369 99.872528,113.113579 
z"/>
</svg>